<svg width="2045" height="1" viewBox="0 0 2045 1" fill="none" xmlns="http://www.w3.org/2000/svg">
<line y1="0.5" x2="17" y2="0.5" stroke="black"/>
<line x1="145" y1="0.5" x2="162" y2="0.5" stroke="black"/>
<line x1="290" y1="0.5" x2="307" y2="0.5" stroke="black"/>
<line x1="435" y1="0.5" x2="452" y2="0.5" stroke="black"/>
<line x1="580" y1="0.5" x2="597" y2="0.5" stroke="black"/>
<line x1="725" y1="0.5" x2="742" y2="0.5" stroke="black"/>
<line x1="870" y1="0.5" x2="887" y2="0.5" stroke="black"/>
<line x1="1474" y1="0.5" x2="1491" y2="0.5" stroke="black"/>
<line x1="1015" y1="0.5" x2="1032" y2="0.5" stroke="black"/>
<line x1="1619" y1="0.5" x2="1636" y2="0.5" stroke="black"/>
<line x1="1160" y1="0.5" x2="1177" y2="0.5" stroke="black"/>
<line x1="1764" y1="0.5" x2="1781" y2="0.5" stroke="black"/>
<line x1="1305" y1="0.5" x2="1322" y2="0.5" stroke="black"/>
<line x1="1909" y1="0.5" x2="1926" y2="0.5" stroke="black"/>
<line x1="71" y1="0.5" x2="88" y2="0.5" stroke="black"/>
<line x1="216" y1="0.5" x2="233" y2="0.5" stroke="black"/>
<line x1="361" y1="0.5" x2="378" y2="0.5" stroke="black"/>
<line x1="506" y1="0.5" x2="523" y2="0.5" stroke="black"/>
<line x1="651" y1="0.5" x2="668" y2="0.5" stroke="black"/>
<line x1="796" y1="0.5" x2="813" y2="0.5" stroke="black"/>
<line x1="941" y1="0.5" x2="958" y2="0.5" stroke="black"/>
<line x1="1545" y1="0.5" x2="1562" y2="0.5" stroke="black"/>
<line x1="1086" y1="0.5" x2="1103" y2="0.5" stroke="black"/>
<line x1="1690" y1="0.5" x2="1707" y2="0.5" stroke="black"/>
<line x1="1231" y1="0.5" x2="1248" y2="0.5" stroke="black"/>
<line x1="1835" y1="0.5" x2="1852" y2="0.5" stroke="black"/>
<line x1="1376" y1="0.5" x2="1393" y2="0.5" stroke="black"/>
<line x1="1980" y1="0.5" x2="1997" y2="0.5" stroke="black"/>
<line x1="23" y1="0.5" x2="40" y2="0.5" stroke="black"/>
<line x1="168" y1="0.5" x2="185" y2="0.5" stroke="black"/>
<line x1="313" y1="0.5" x2="330" y2="0.5" stroke="black"/>
<line x1="458" y1="0.5" x2="475" y2="0.5" stroke="black"/>
<line x1="603" y1="0.5" x2="620" y2="0.5" stroke="black"/>
<line x1="748" y1="0.5" x2="765" y2="0.5" stroke="black"/>
<line x1="893" y1="0.5" x2="910" y2="0.5" stroke="black"/>
<line x1="1497" y1="0.5" x2="1514" y2="0.5" stroke="black"/>
<line x1="1038" y1="0.5" x2="1055" y2="0.5" stroke="black"/>
<line x1="1642" y1="0.5" x2="1659" y2="0.5" stroke="black"/>
<line x1="1183" y1="0.5" x2="1200" y2="0.5" stroke="black"/>
<line x1="1787" y1="0.5" x2="1804" y2="0.5" stroke="black"/>
<line x1="1328" y1="0.5" x2="1345" y2="0.5" stroke="black"/>
<line x1="1932" y1="0.5" x2="1949" y2="0.5" stroke="black"/>
<line x1="95" y1="0.5" x2="112" y2="0.5" stroke="black"/>
<line x1="240" y1="0.5" x2="257" y2="0.5" stroke="black"/>
<line x1="385" y1="0.5" x2="402" y2="0.5" stroke="black"/>
<line x1="530" y1="0.5" x2="547" y2="0.5" stroke="black"/>
<line x1="675" y1="0.5" x2="692" y2="0.5" stroke="black"/>
<line x1="820" y1="0.5" x2="837" y2="0.5" stroke="black"/>
<line x1="965" y1="0.5" x2="982" y2="0.5" stroke="black"/>
<line x1="1569" y1="0.5" x2="1586" y2="0.5" stroke="black"/>
<line x1="1110" y1="0.5" x2="1127" y2="0.5" stroke="black"/>
<line x1="1714" y1="0.5" x2="1731" y2="0.5" stroke="black"/>
<line x1="1255" y1="0.5" x2="1272" y2="0.5" stroke="black"/>
<line x1="1859" y1="0.5" x2="1876" y2="0.5" stroke="black"/>
<line x1="1400" y1="0.5" x2="1417" y2="0.5" stroke="black"/>
<line x1="2004" y1="0.5" x2="2021" y2="0.5" stroke="black"/>
<line x1="47" y1="0.5" x2="64" y2="0.5" stroke="black"/>
<line x1="192" y1="0.5" x2="209" y2="0.5" stroke="black"/>
<line x1="337" y1="0.5" x2="354" y2="0.5" stroke="black"/>
<line x1="482" y1="0.5" x2="499" y2="0.5" stroke="black"/>
<line x1="627" y1="0.5" x2="644" y2="0.5" stroke="black"/>
<line x1="772" y1="0.5" x2="789" y2="0.5" stroke="black"/>
<line x1="917" y1="0.5" x2="934" y2="0.5" stroke="black"/>
<line x1="1521" y1="0.5" x2="1538" y2="0.5" stroke="black"/>
<line x1="1062" y1="0.5" x2="1079" y2="0.5" stroke="black"/>
<line x1="1666" y1="0.5" x2="1683" y2="0.5" stroke="black"/>
<line x1="1207" y1="0.5" x2="1224" y2="0.5" stroke="black"/>
<line x1="1811" y1="0.5" x2="1828" y2="0.5" stroke="black"/>
<line x1="1352" y1="0.5" x2="1369" y2="0.5" stroke="black"/>
<line x1="1956" y1="0.5" x2="1973" y2="0.5" stroke="black"/>
<line x1="119" y1="0.5" x2="136" y2="0.5" stroke="black"/>
<line x1="264" y1="0.5" x2="281" y2="0.5" stroke="black"/>
<line x1="409" y1="0.5" x2="426" y2="0.5" stroke="black"/>
<line x1="554" y1="0.5" x2="571" y2="0.5" stroke="black"/>
<line x1="699" y1="0.5" x2="716" y2="0.5" stroke="black"/>
<line x1="844" y1="0.5" x2="861" y2="0.5" stroke="black"/>
<line x1="1448" y1="0.5" x2="1465" y2="0.5" stroke="black"/>
<line x1="989" y1="0.5" x2="1006" y2="0.5" stroke="black"/>
<line x1="1593" y1="0.5" x2="1610" y2="0.5" stroke="black"/>
<line x1="1134" y1="0.5" x2="1151" y2="0.5" stroke="black"/>
<line x1="1738" y1="0.5" x2="1755" y2="0.5" stroke="black"/>
<line x1="1279" y1="0.5" x2="1296" y2="0.5" stroke="black"/>
<line x1="1883" y1="0.5" x2="1900" y2="0.5" stroke="black"/>
<line x1="1424" y1="0.5" x2="1441" y2="0.5" stroke="black"/>
<line x1="2028" y1="0.5" x2="2045" y2="0.5" stroke="black"/>
</svg>
