<svg width="18" height="18" viewBox="0 0 18 18" fill="none" xmlns="http://www.w3.org/2000/svg">
<path d="M9 5.625C8.33249 5.625 7.67997 5.82294 7.12495 6.19379C6.56993 6.56464 6.13735 7.09174 5.88191 7.70844C5.62646 8.32514 5.55962 9.00374 5.68985 9.65843C5.82008 10.3131 6.14151 10.9145 6.61351 11.3865C7.08552 11.8585 7.68688 12.1799 8.34157 12.3102C8.99626 12.4404 9.67486 12.3735 10.2916 12.1181C10.9083 11.8626 11.4354 11.4301 11.8062 10.875C12.1771 10.32 12.375 9.66751 12.375 9C12.375 8.10489 12.0194 7.24645 11.3865 6.61351C10.7536 5.98058 9.89511 5.625 9 5.625ZM9 11.25C8.55499 11.25 8.11998 11.118 7.74997 10.8708C7.37996 10.6236 7.09157 10.2722 6.92127 9.86104C6.75097 9.4499 6.70642 8.9975 6.79323 8.56105C6.88005 8.12459 7.09434 7.72368 7.40901 7.40901C7.72368 7.09434 8.12459 6.88005 8.56105 6.79323C8.9975 6.70642 9.4499 6.75097 9.86104 6.92127C10.2722 7.09157 10.6236 7.37996 10.8708 7.74997C11.118 8.11998 11.25 8.55499 11.25 9C11.2481 9.59617 11.0105 10.1674 10.5889 10.5889C10.1674 11.0105 9.59617 11.2481 9 11.25ZM12.0938 1.96875H5.90625C4.86196 1.96875 3.86044 2.38359 3.12202 3.12202C2.38359 3.86044 1.96875 4.86196 1.96875 5.90625V12.0938C1.96875 13.138 2.38359 14.1396 3.12202 14.878C3.86044 15.6164 4.86196 16.0312 5.90625 16.0312H12.0938C13.138 16.0312 14.1396 15.6164 14.878 14.878C15.6164 14.1396 16.0312 13.138 16.0312 12.0938V5.90625C16.0312 4.86196 15.6164 3.86044 14.878 3.12202C14.1396 2.38359 13.138 1.96875 12.0938 1.96875ZM14.9062 12.0938C14.9062 12.4631 14.8335 12.8288 14.6922 13.17C14.5508 13.5113 14.3437 13.8213 14.0825 14.0825C13.8213 14.3437 13.5113 14.5508 13.17 14.6922C12.8288 14.8335 12.4631 14.9062 12.0938 14.9062H5.90625C5.53691 14.9062 5.17118 14.8335 4.82995 14.6922C4.48872 14.5508 4.17868 14.3437 3.91751 14.0825C3.65635 13.8213 3.44918 13.5113 3.30784 13.17C3.1665 12.8288 3.09375 12.4631 3.09375 12.0938V5.90625C3.09375 5.16033 3.39007 4.44496 3.91751 3.91751C4.44496 3.39007 5.16033 3.09375 5.90625 3.09375H12.0938C12.4631 3.09375 12.8288 3.1665 13.17 3.30784C13.5113 3.44918 13.8213 3.65635 14.0825 3.91751C14.3437 4.17868 14.5508 4.48872 14.6922 4.82995C14.8335 5.17118 14.9062 5.53691 14.9062 5.90625V12.0938ZM13.5 5.34375C13.5 5.51063 13.4505 5.67376 13.3578 5.81251C13.2651 5.95127 13.1333 6.05941 12.9791 6.12327C12.825 6.18713 12.6553 6.20384 12.4916 6.17129C12.328 6.13873 12.1776 6.05837 12.0596 5.94037C11.9416 5.82237 11.8613 5.67203 11.8287 5.50836C11.7962 5.34469 11.8129 5.17504 11.8767 5.02086C11.9406 4.86669 12.0487 4.73491 12.1875 4.6422C12.3262 4.54948 12.4894 4.5 12.6562 4.5C12.88 4.5 13.0946 4.58889 13.2529 4.74713C13.4111 4.90536 13.5 5.11997 13.5 5.34375Z" fill="black"/>
</svg>
