<svg width="18" height="18" viewBox="0 0 18 18" fill="none" xmlns="http://www.w3.org/2000/svg">
<path d="M5.20502 3.75C5.20482 4.14783 5.04659 4.52928 4.76515 4.81044C4.4837 5.09161 4.10209 5.24945 3.70427 5.24925C3.30644 5.24905 2.92499 5.09083 2.64383 4.80938C2.36266 4.52794 2.20482 4.14633 2.20502 3.7485C2.20522 3.35068 2.36344 2.96923 2.64489 2.68806C2.92633 2.4069 3.30794 2.24905 3.70577 2.24925C4.10359 2.24945 4.48504 2.40768 4.76621 2.68912C5.04737 2.97057 5.20522 3.35218 5.20502 3.75ZM5.25002 6.36H2.25002V15.75H5.25002V6.36ZM9.99002 6.36H7.00502V15.75H9.96002V10.8225C9.96002 8.0775 13.5375 7.8225 13.5375 10.8225V15.75H16.5V9.8025C16.5 5.175 11.205 5.3475 9.96002 7.62L9.99002 6.36Z" fill="black"/>
</svg>
