<svg width="18" height="18" viewBox="0 0 18 18" fill="none" xmlns="http://www.w3.org/2000/svg">
<path d="M17.3953 4.84453C17.3523 4.74216 17.2799 4.65481 17.1873 4.5935C17.0947 4.53219 16.9861 4.49965 16.875 4.5H14.7375C14.481 4.05248 14.1249 3.67 13.6968 3.38219C13.2688 3.09438 12.7802 2.90897 12.269 2.8403C11.7577 2.77164 11.2376 2.82157 10.7487 2.98623C10.2599 3.15089 9.81551 3.42586 9.45 3.78985C9.12999 4.10187 8.87557 4.47471 8.7017 4.88646C8.52782 5.2982 8.438 5.74055 8.4375 6.1875V6.61641C5.57579 5.87109 3.23438 3.56485 3.21329 3.53672C3.13974 3.46436 3.0477 3.41362 2.94725 3.39006C2.8468 3.3665 2.74181 3.37102 2.64375 3.40313C2.54601 3.43423 2.45848 3.49116 2.39042 3.56789C2.32235 3.64462 2.27627 3.73831 2.25704 3.83906C1.64532 7.22813 2.66485 9.49922 3.62813 10.807C4.11128 11.4683 4.69768 12.0476 5.36485 12.5227C4.28907 13.7391 2.62969 14.3719 2.61563 14.3789C2.53628 14.4083 2.46459 14.4553 2.40591 14.5163C2.34722 14.5773 2.30306 14.6507 2.2767 14.7311C2.25034 14.8115 2.24247 14.8969 2.25368 14.9808C2.26488 15.0647 2.29487 15.1449 2.34141 15.2156C2.39766 15.3 2.6086 15.5742 3.12188 15.8344C3.76172 16.1508 4.60547 16.3125 5.625 16.3125C10.582 16.3125 14.7305 12.4945 15.1523 7.57969L17.2758 5.46328C17.3521 5.38195 17.4038 5.28068 17.425 5.17118C17.4461 5.06168 17.4358 4.94843 17.3953 4.84453ZM14.2102 6.93281C14.1122 7.03 14.0544 7.16056 14.0484 7.29844C13.7602 11.7211 10.0617 15.1875 5.625 15.1875C4.87969 15.1875 4.35938 15.0891 3.99375 14.9695C4.80235 14.5336 5.92735 13.7742 6.6586 12.6844C6.70105 12.6184 6.72923 12.5443 6.74134 12.4668C6.75345 12.3893 6.74921 12.3101 6.72891 12.2344C6.70844 12.1578 6.67223 12.0864 6.62259 12.0247C6.57295 11.9629 6.51098 11.9122 6.44063 11.8758C6.4336 11.8688 5.39297 11.3273 4.5 10.0969C3.4875 8.70469 3.0586 7.01016 3.22735 5.05547C4.33829 5.96953 6.46172 7.46016 8.9086 7.86797C8.9894 7.88095 9.07205 7.87636 9.15091 7.85452C9.22978 7.83268 9.30301 7.7941 9.36563 7.74141C9.42684 7.68785 9.47603 7.62194 9.50996 7.54802C9.54389 7.4741 9.5618 7.39384 9.5625 7.3125V6.1875C9.56355 5.67141 9.74199 5.17136 10.0679 4.77119C10.3938 4.37102 10.8474 4.09506 11.3526 3.98957C11.8578 3.88408 12.3839 3.95547 12.8427 4.19178C13.3015 4.42809 13.6652 4.81495 13.8727 5.2875C13.9175 5.38802 13.9905 5.47339 14.0828 5.53328C14.1752 5.59318 14.2829 5.62504 14.393 5.625H15.518L14.2102 6.93281Z" fill="black"/>
</svg>
