<svg width="1" height="1201" viewBox="0 0 1 1201" fill="none" xmlns="http://www.w3.org/2000/svg">
<line x1="0.5" y1="1201" x2="0.5" y2="1184" stroke="black"/>
<line x1="0.5" y1="1056" x2="0.5" y2="1039" stroke="black"/>
<line x1="0.5" y1="911" x2="0.5" y2="894" stroke="black"/>
<line x1="0.5" y1="766" x2="0.5" y2="749" stroke="black"/>
<line x1="0.5" y1="621" x2="0.5" y2="604" stroke="black"/>
<line x1="0.5" y1="476" x2="0.5" y2="459" stroke="black"/>
<line x1="0.5" y1="331" x2="0.5" y2="314" stroke="black"/>
<line x1="0.5" y1="186" x2="0.5" y2="169" stroke="black"/>
<line x1="0.5" y1="41" x2="0.5" y2="24" stroke="black"/>
<line x1="0.5" y1="1130" x2="0.5" y2="1113" stroke="black"/>
<line x1="0.5" y1="985" x2="0.5" y2="968" stroke="black"/>
<line x1="0.5" y1="840" x2="0.5" y2="823" stroke="black"/>
<line x1="0.5" y1="695" x2="0.5" y2="678" stroke="black"/>
<line x1="0.5" y1="550" x2="0.5" y2="533" stroke="black"/>
<line x1="0.5" y1="405" x2="0.5" y2="388" stroke="black"/>
<line x1="0.5" y1="260" x2="0.5" y2="243" stroke="black"/>
<line x1="0.5" y1="115" x2="0.5" y2="98" stroke="black"/>
<line x1="0.5" y1="1178" x2="0.5" y2="1161" stroke="black"/>
<line x1="0.5" y1="1033" x2="0.5" y2="1016" stroke="black"/>
<line x1="0.5" y1="888" x2="0.5" y2="871" stroke="black"/>
<line x1="0.5" y1="743" x2="0.5" y2="726" stroke="black"/>
<line x1="0.5" y1="598" x2="0.5" y2="581" stroke="black"/>
<line x1="0.5" y1="453" x2="0.5" y2="436" stroke="black"/>
<line x1="0.5" y1="308" x2="0.5" y2="291" stroke="black"/>
<line x1="0.5" y1="163" x2="0.5" y2="146" stroke="black"/>
<line x1="0.5" y1="18" x2="0.5" y2="1" stroke="black"/>
<line x1="0.5" y1="1106" x2="0.5" y2="1089" stroke="black"/>
<line x1="0.5" y1="961" x2="0.5" y2="944" stroke="black"/>
<line x1="0.5" y1="816" x2="0.5" y2="799" stroke="black"/>
<line x1="0.5" y1="671" x2="0.5" y2="654" stroke="black"/>
<line x1="0.5" y1="526" x2="0.5" y2="509" stroke="black"/>
<line x1="0.5" y1="381" x2="0.5" y2="364" stroke="black"/>
<line x1="0.5" y1="236" x2="0.5" y2="219" stroke="black"/>
<line x1="0.5" y1="91" x2="0.5" y2="74" stroke="black"/>
<line x1="0.5" y1="1154" x2="0.5" y2="1137" stroke="black"/>
<line x1="0.5" y1="1009" x2="0.5" y2="992" stroke="black"/>
<line x1="0.5" y1="864" x2="0.5" y2="847" stroke="black"/>
<line x1="0.5" y1="719" x2="0.5" y2="702" stroke="black"/>
<line x1="0.5" y1="574" x2="0.5" y2="557" stroke="black"/>
<line x1="0.5" y1="429" x2="0.5" y2="412" stroke="black"/>
<line x1="0.5" y1="284" x2="0.5" y2="267" stroke="black"/>
<line x1="0.5" y1="139" x2="0.5" y2="122" stroke="black"/>
<line x1="0.5" y1="1082" x2="0.5" y2="1065" stroke="black"/>
<line x1="0.5" y1="937" x2="0.5" y2="920" stroke="black"/>
<line x1="0.5" y1="792" x2="0.5" y2="775" stroke="black"/>
<line x1="0.5" y1="647" x2="0.5" y2="630" stroke="black"/>
<line x1="0.5" y1="502" x2="0.5" y2="485" stroke="black"/>
<line x1="0.5" y1="357" x2="0.5" y2="340" stroke="black"/>
<line x1="0.5" y1="212" x2="0.5" y2="195" stroke="black"/>
<line x1="0.5" y1="67" x2="0.5" y2="50" stroke="black"/>
</svg>
